PathFileType	4	(x/y/z)	TRC_MarkerData\Passive\Passive_Pref0004.trc
DataRate	CameraRate	NumFrames	NumMarkers	Units	OrigDataRate	OrigDataStartFrame	OrigNumFrames
240	240	9	49	mm	240	1	259
Frame#	Time	R_AC			L_AC			HEAD			STERN			L_IC			R_IC			L_ASIS			R_ASIS			L_GT			R_GT			L_PSIS			R_PSIS			SACRAL			L_LAT_KNEE			L_MED_KNEE			R_LAT_KNEE			R_MED_KNEE			L_LAT_ANK			L_MED_ANK			R_LAT_ANK			R_MED_ANK			L_THIGH_PROX_POST			L_THIGH_PROX_ANT			L_THIGH_DIST_ANT			L_THIGH_DIST_POST			R_THIGH_PROX_POST			R_THIGH_PROX_ANT			R_THIGH_DIST_ANT			R_THIGH_DIST_POST			L_SHANK_PROX_POST			L_SHANK_PROX_ANT			L_SHANK_DIST_ANT			L_SHANK_DIST_POST			R_SHANK_PROX_POST			R_SHANK_PROX_ANT			R_SHANK_DIST_ANT			R_SHANK_DIST_POST			L_HEEL_LAT			L_HEEL_SUP			L_HEEL_MED			R_HEEL_LAT			R_HEEL_SUP			R_HEEL_MED			L_1ST_MET			L_5TH_MET			L_TOE			R_1ST_MET			R_5TH_MET			R_TOE			
		X1	Y1	Z1	X2	Y2	Z2	X3	Y3	Z3	X4	Y4	Z4	X5	Y5	Z5	X6	Y6	Z6	X7	Y7	Z7	X8	Y8	Z8	X9	Y9	Z9	X10	Y10	Z10	X11	Y11	Z11	X12	Y12	Z12	X13	Y13	Z13	X14	Y14	Z14	X15	Y15	Z15	X16	Y16	Z16	X17	Y17	Z17	X18	Y18	Z18	X19	Y19	Z19	X20	Y20	Z20	X21	Y21	Z21	X22	Y22	Z22	X23	Y23	Z23	X24	Y24	Z24	X25	Y25	Z25	X26	Y26	Z26	X27	Y27	Z27	X28	Y28	Z28	X29	Y29	Z29	X30	Y30	Z30	X31	Y31	Z31	X32	Y32	Z32	X33	Y33	Z33	X34	Y34	Z34	X35	Y35	Z35	X36	Y36	Z36	X37	Y37	Z37	X38	Y38	Z38	X39	Y39	Z39	X40	Y40	Z40	X41	Y41	Z41	X42	Y42	Z42	X43	Y43	Z43	X44	Y44	Z44	X45	Y45	Z45	X46	Y46	Z46	X47	Y47	Z47	X48	Y48	Z48	X49	Y49	Z49	

1	0	-828.76	1484	464.96	-812.7	1492.3	113.02	-823.39	1772.2	282.39	-784.75	1427	294.14	-844.36	1066.7	123.21	-876.28	1076.5	450.02	-782.49	991.8	157.57	-801.47	984.92	433.92	-837.71	900.64	94.091	-905.95	926.52	480.02	-975.78	1041.5	225.73	-980.59	1049.4	318.28	-989.96	1013.3	271.1	-689.98	528.32	153.39	-723.5	500.63	284.43	-1047.9	543.71	419.08	-1036.7	554.68	286.15	-524.79	140.31	162.81	-527.84	137.46	235.3	-1260.5	164.65	376.71	-1242.1	178.92	288.11	-790.5	734.77	123.95	-734.36	755.4	151.6	-708.32	687.3	167.55	-763.24	665.31	137.66	-1010.6	750.26	437.68	-946.45	734.17	454.31	-968.85	663.41	440.68	-1032	680.23	423.19	-666.83	443.51	153.07	-635.55	470.89	183.24	-619.22	414.11	185.83	-663.97	379.59	170.51	-1177	420.15	415.47	-1114.9	390.95	417.52	-1150.2	324.96	402.33	-1212	356.59	398.07	-564.93	39.392	161.3	-588.14	59.725	195.4	-564.91	34.598	227.41	-1357.7	133.28	349.77	-1345.1	158.66	317.06	-1339.4	126.3	286.09	-386.5	140.13	254	-401.86	116.71	146.71	-335.49	175.72	223.97	-1160.4	51.375	312.18	-1197.2	54.371	411.3	-1111.8	46.337	364.21
2	0.0041828	-823	1482.8	464.15	-807.26	1491.3	112.28	-818.24	1771.1	281.87	-779.03	1425.9	293.42	-838.18	1065.4	122.78	-870.23	1075.4	449.71	-776.25	990.67	157.2	-795.64	983.73	433.66	-831.41	899.55	93.809	-900.39	925.39	479.61	-969.65	1040.3	225.37	-974.49	1048.2	317.9	-983.88	1012.2	270.72	-683.77	527.45	152.89	-717.29	500.24	284	-1043.2	543.02	418.78	-1031.6	553.78	285.95	-521.92	138.14	162.47	-524.89	135.39	234.97	-1258.7	165.63	376.68	-1239.9	179.67	288.13	-784.07	733.8	123.47	-727.99	754.48	151.08	-701.84	686.43	166.96	-756.82	664.38	137.22	-1005.3	749.52	437.19	-941.33	733.26	454.11	-963.87	662.54	440.5	-1026.9	679.5	422.72	-661.3	442.48	152.6	-629.74	469.62	182.69	-613.92	412.69	185.31	-658.98	378.55	170.11	-1173.2	420.48	415.06	-1111.4	390.86	417.29	-1147.2	325.1	402.23	-1208.7	357.22	397.72	-563.55	38.555	161.14	-585.93	59.45	195.21	-563.45	34.074	227.31	-1356	135.36	349.63	-1343.1	160.57	316.85	-1337.8	128.2	285.87	-383.36	135.99	253.3	-399.34	112.72	146.1	-331.9	170.7	223.13	-1160.4	51.27	312.24	-1196.9	54.462	411.29	-1111.9	46.367	364.23
3	0.0083656	-816.99	1481.6	463.31	-801.57	1490.2	111.49	-812.88	1770	281.33	-773.06	1424.7	292.65	-831.75	1064.2	122.33	-863.9	1074.2	449.39	-769.75	989.52	156.81	-789.53	982.51	433.39	-824.85	898.45	93.502	-894.56	924.22	479.18	-963.26	1039	225	-968.12	1047	317.52	-977.52	1011	270.33	-677.32	526.59	152.37	-710.83	499.89	283.55	-1038.3	542.3	418.47	-1026.1	552.82	285.74	-518.97	135.94	162.11	-521.86	133.3	234.63	-1256.8	166.68	376.66	-1237.6	180.45	288.18	-777.42	732.81	122.96	-721.39	753.53	150.5	-695.12	685.54	166.31	-750.19	663.42	136.75	-999.83	748.73	436.69	-935.95	732.32	453.9	-958.62	661.64	440.32	-1021.5	678.73	422.23	-655.57	441.46	152.12	-623.71	468.35	182.12	-608.42	411.26	184.79	-653.8	377.53	169.71	-1169.2	420.83	414.62	-1107.6	390.78	417.07	-1143.9	325.24	402.12	-1205.1	357.88	397.35	-562.14	37.753	160.97	-583.66	59.224	195.03	-561.97	33.588	227.21	-1354.2	137.59	349.5	-1341	162.6	316.64	-1336.1	130.22	285.63	-380.14	131.71	252.57	-396.77	108.6	145.49	-328.21	165.47	222.28	-1160.4	51.159	312.31	-1196.5	54.558	411.3	-1112	46.392	364.24
4	0.012548	-810.77	1480.4	462.42	-795.67	1489.1	110.66	-807.33	1768.8	280.77	-766.87	1423.6	291.84	-825.09	1062.9	121.86	-857.33	1073	449.07	-763.02	988.37	156.4	-783.19	981.27	433.09	-818.09	897.36	93.17	-888.49	923.02	478.75	-956.65	1037.8	224.62	-961.53	1045.7	317.14	-970.93	1009.7	269.95	-670.66	525.76	151.84	-704.16	499.58	283.09	-1033.1	541.55	418.16	-1020.4	551.82	285.52	-515.98	133.74	161.76	-518.77	131.21	234.29	-1254.7	167.78	376.67	-1235.2	181.28	288.25	-770.6	731.81	122.45	-714.59	752.57	149.85	-688.21	684.63	165.59	-743.38	662.46	136.27	-994.07	747.91	436.17	-930.32	731.35	453.68	-953.13	660.71	440.13	-1015.8	677.92	421.73	-649.66	440.47	151.62	-617.49	467.09	181.54	-602.76	409.84	184.25	-648.48	376.54	169.29	-1164.9	421.2	414.17	-1103.6	390.7	416.86	-1140.5	325.4	402.03	-1201.4	358.56	396.97	-560.75	37.009	160.81	-581.38	59.062	194.85	-560.5	33.158	227.11	-1352.2	139.96	349.39	-1338.7	164.75	316.44	-1334.2	132.37	285.4	-376.88	127.31	251.83	-394.2	104.39	144.86	-324.47	160.08	221.4	-1160.4	51.046	312.38	-1196.2	54.662	411.3	-1112	46.41	364.25
5	0.016731	-804.38	1479.2	461.51	-789.58	1488	109.79	-801.64	1767.7	280.19	-760.49	1422.4	290.99	-818.24	1061.6	121.38	-850.53	1071.8	448.74	-756.11	987.24	155.97	-776.65	980.03	432.78	-811.17	896.28	92.812	-882.19	921.79	478.32	-949.86	1036.5	224.25	-954.73	1044.5	316.76	-964.13	1008.5	269.56	-663.84	524.98	151.32	-697.34	499.33	282.63	-1027.7	540.76	417.85	-1014.5	550.76	285.31	-512.97	131.57	161.4	-515.67	129.14	233.95	-1252.5	168.94	376.7	-1232.6	182.13	288.36	-763.67	730.82	121.93	-707.64	751.6	149.15	-681.15	683.72	164.82	-736.45	661.49	135.77	-988.09	747.05	435.64	-924.47	730.36	453.45	-947.41	659.75	439.93	-1010	677.08	421.21	-643.62	439.53	151.12	-611.13	465.87	180.94	-596.98	408.46	183.71	-643.03	375.6	168.87	-1160.5	421.6	413.69	-1099.4	390.61	416.65	-1136.8	325.57	401.95	-1197.5	359.28	396.57	-559.39	36.338	160.65	-579.1	58.975	194.66	-559.05	32.799	227.02	-1350.1	142.48	349.29	-1336.2	167.03	316.25	-1332.2	134.65	285.18	-373.62	122.84	251.09	-391.65	100.12	144.23	-320.72	154.57	220.53	-1160.4	50.931	312.45	-1195.8	54.774	411.32	-1112.1	46.418	364.26
6	0.020914	-797.84	1478	460.56	-783.34	1486.9	108.87	-795.82	1766.6	279.59	-753.96	1421.3	290.09	-811.25	1060.4	120.89	-843.55	1070.7	448.41	-749.06	986.13	155.53	-769.92	978.8	432.44	-804.12	895.24	92.428	-875.7	920.55	477.9	-942.94	1035.2	223.88	-947.78	1043.2	316.39	-957.16	1007.3	269.19	-656.89	524.27	150.78	-690.4	499.16	282.16	-1022	539.95	417.54	-1008.3	549.66	285.1	-509.96	129.44	161.04	-512.58	127.12	233.62	-1250.2	170.15	376.77	-1229.8	183	288.5	-756.65	729.84	121.4	-700.59	750.64	148.38	-673.99	682.82	163.97	-729.45	660.55	135.26	-981.92	746.17	435.1	-918.42	729.35	453.22	-941.47	658.77	439.73	-1003.9	676.2	420.69	-637.48	438.66	150.62	-604.66	464.71	180.34	-591.11	407.12	183.16	-637.51	374.73	168.45	-1155.8	422	413.21	-1095.1	390.53	416.47	-1133	325.76	401.89	-1193.3	360.01	396.16	-558.06	35.754	160.51	-576.86	58.968	194.49	-557.64	32.519	226.93	-1347.8	145.14	349.21	-1333.6	169.42	316.08	-1330	137.05	284.97	-370.39	118.33	250.34	-389.14	95.838	143.61	-316.98	148.97	219.65	-1160.4	50.819	312.52	-1195.4	54.898	411.34	-1112.1	46.413	364.27
7	0.025097	-791.18	1476.8	459.58	-776.97	1485.9	107.93	-789.9	1765.6	278.97	-747.3	1420.3	289.16	-804.15	1059.1	120.39	-836.4	1069.5	448.09	-741.89	985.07	155.07	-763.05	977.59	432.08	-796.98	894.25	92.017	-869.03	919.29	477.47	-935.9	1034	223.52	-940.69	1042	316.02	-950.06	1006	268.83	-649.84	523.62	150.25	-683.37	499.07	281.69	-1016.1	539.1	417.24	-1001.9	548.51	284.89	-506.99	127.38	160.69	-509.52	125.16	233.3	-1247.7	171.41	376.88	-1226.9	183.91	288.69	-749.61	728.89	120.87	-693.46	749.71	147.56	-666.76	681.94	163.06	-722.4	659.63	134.74	-975.55	745.26	434.55	-912.17	728.33	452.98	-935.32	657.77	439.53	-997.62	675.29	420.16	-631.27	437.86	150.12	-598.1	463.61	179.73	-585.18	405.85	182.61	-631.94	373.94	168.03	-1150.9	422.43	412.71	-1090.5	390.44	416.31	-1129.1	325.96	401.86	-1189	360.77	395.74	-556.79	35.263	160.37	-574.66	59.041	194.31	-556.29	32.32	226.85	-1345.3	147.96	349.17	-1330.8	171.94	315.94	-1327.6	139.6	284.77	-367.22	113.82	249.61	-386.7	91.573	142.99	-313.3	143.34	218.79	-1160.4	50.712	312.59	-1195	55.036	411.37	-1112.2	46.391	364.29
8	0.02928	-784.43	1475.7	458.58	-770.5	1484.9	106.94	-783.91	1764.6	278.35	-740.54	1419.2	288.19	-796.96	1058	119.89	-829.12	1068.5	447.76	-734.64	984.08	154.59	-756.04	976.42	431.69	-789.79	893.34	91.58	-862.2	918.03	477.05	-928.77	1032.8	223.17	-933.5	1040.8	315.68	-942.84	1004.9	268.48	-642.73	523.06	149.73	-676.27	499.06	281.21	-1010	538.23	416.95	-995.22	547.31	284.69	-504.07	125.4	160.35	-506.52	123.29	232.99	-1245.1	172.72	377.03	-1223.8	184.83	288.93	-742.55	727.99	120.34	-686.3	748.81	146.67	-659.5	681.09	162.09	-715.35	658.75	134.22	-969.01	744.32	434	-905.74	727.3	452.73	-928.98	656.75	439.33	-991.15	674.35	419.63	-625.01	437.15	149.62	-591.49	462.6	179.13	-579.22	404.66	182.07	-626.34	373.25	167.61	-1145.8	422.87	412.2	-1085.7	390.36	416.18	-1124.9	326.17	401.85	-1184.5	361.54	395.32	-555.58	34.868	160.25	-572.53	59.192	194.15	-554.99	32.204	226.77	-1342.6	150.91	349.15	-1327.8	174.58	315.83	-1325.1	142.29	284.6	-364.14	109.35	248.9	-384.35	87.361	142.39	-309.72	137.71	217.94	-1160.3	50.615	312.66	-1194.5	55.194	411.42	-1112.2	46.348	364.3
9	0.033463	-777.6	1474.7	457.56	-763.94	1483.9	105.93	-777.87	1763.6	277.7	-733.7	1418.3	287.18	-789.72	1056.9	119.38	-821.72	1067.4	447.43	-727.34	983.15	154.09	-748.92	975.28	431.28	-782.58	892.5	91.117	-855.23	916.78	476.64	-921.58	1031.7	222.83	-926.22	1039.7	315.35	-935.53	1003.7	268.16	-635.57	522.59	149.2	-669.14	499.15	280.74	-1003.7	537.32	416.67	-988.33	546.07	284.5	-501.23	123.52	160.01	-503.59	121.51	232.69	-1242.3	174.08	377.24	-1220.5	185.78	289.23	-735.52	727.15	119.81	-679.12	747.95	145.73	-652.22	680.29	161.06	-708.32	657.93	133.69	-962.31	743.35	433.46	-899.15	726.26	452.48	-922.45	655.71	439.13	-984.49	673.37	419.11	-618.73	436.53	149.12	-584.86	461.66	178.52	-573.24	403.55	181.54	-620.73	372.65	167.19	-1140.5	423.32	411.68	-1080.7	390.28	416.09	-1120.5	326.4	401.87	-1179.8	362.33	394.9	-554.42	34.567	160.13	-570.49	59.412	193.99	-553.75	32.166	226.7	-1339.7	154.02	349.18	-1324.5	177.35	315.76	-1322.3	145.12	284.47	-361.17	104.95	248.21	-382.11	83.236	141.82	-306.25	132.14	217.14	-1160.2	50.532	312.74	-1194	55.376	411.48	-1112.3	46.28	364.32
